:SAMPLES-PER-SECOND 30
:FULLY-SPECIFIED
:DEGREES
570
root  -40.5179 38.7211 -0.286215 -131.667 86.6983 -129.109
RightUpLeg  -16.3485 -1.33658 4.18396
RightLeg  27.732 -0.983233 -0.812759
RightFoot  -7.22883 0.0841951 -3.70572
RightToes  3.49245e-010 0 -3.6325e-017
Spine  5.44602 -1.0227 11.8281
Spine1  7.1812 0.735458 -0.828707
HEad  -15.5095 -1.22056 -0.164376
LeftShoulder1  -0.444243 4.62355 -33.5145
LeftArm  7.39183 4.0462 -44.2642
LeftForeArm  32.1596 -13.1833 -8.90834
LeftHand  -0.0296869 6.15011 0.509709
RightShoulder  -0.862593 -5.92754 28.9715
RightArm  15.6992 7.56354 50.0031
RightForeArm  13.878 10.2928 7.4009
RightHand  -0.372036 5.59048 -4.27868
LeftUpLeg  -8.61468 -3.0199 4.6446
LeftLeg  63.4889 -2.27083 -4.31999
LeftFoot  5.73516 0.878898 -6.10745
LeftToes  -5.6298e-010 8.41567e-011 -1.83319e-011
571
root  -39.2071 38.9488 -0.197801 -132.191 87.4934 -129.43
RightUpLeg  -13.2823 -1.6166 3.72047
RightLeg  26.6632 -0.339132 -0.524417
RightFoot  -8.88812 0.0259524 -4.04187
RightToes  3.49245e-010 0 -3.6325e-017
Spine  5.08614 -0.495901 12.2215
Spine1  7.3346 1.50286 -1.79591
HEad  -15.096 -2.12125 -0.216765
LeftShoulder1  -0.454193 4.63786 -33.881
LeftArm  2.00486 6.56661 -42.2457
LeftForeArm  35.2365 -10.2512 -9.49336
LeftHand  -0.037026 6.87966 0.0622249
RightShoulder  -0.761804 -5.69122 28.197
RightArm  17.8925 10.7617 51.3294
RightForeArm  12.9383 12.0919 7.24722
RightHand  -0.363456 7.30825 -3.66604
LeftUpLeg  -12.7955 -3.1868 4.21273
LeftLeg  64.1302 -2.05118 -3.99047
LeftFoot  4.22575 0.752853 -5.68011
LeftToes  -5.6298e-010 8.41567e-011 -1.83319e-011
572
root  -37.8946 39.1615 -0.10795 -124.563 88.4337 -121.464
RightUpLeg  -9.82745 -2.69306 3.13691
RightLeg  25.0743 1.31487 0.0817973
RightFoot  -10.4084 -0.0329648 -4.47312
RightToes  3.49245e-010 0 -3.6325e-017
Spine  5.13603 -0.00709144 12.9008
Spine1  7.07189 2.41136 -3.81007
HEad  -15.2118 -4.0163 -1.14857
LeftShoulder1  -0.379746 4.46595 -33.3357
LeftArm  -1.08393 9.41254 -40.5976
LeftForeArm  36.3269 -8.54893 -9.37486
LeftHand  -0.045614 7.64664 -0.188504
RightShoulder  -0.808508 -5.82936 28.1473
RightArm  20.7357 13.9331 52.2795
RightForeArm  11.0195 14.0198 6.93691
RightHand  -0.332017 6.76363 -3.51279
LeftUpLeg  -16.1015 -2.86181 3.70839
LeftLeg  61.7374 -1.8053 -3.06498
LeftFoot  2.02678 0.507259 -4.42993
LeftToes  -5.6298e-010 8.41567e-011 -1.83319e-011
573
root  -36.5927 39.3266 -0.0211618 -123.606 89.6389 -120.202
RightUpLeg  -6.62155 -3.63602 2.27269
RightLeg  23.7466 2.90521 0.465098
RightFoot  -11.839 -0.100114 -4.52846
RightToes  3.49245e-010 0 -3.6325e-017
Spine  5.44223 0.509849 12.7093
Spine1  6.52601 3.05439 -4.89638
HEad  -15.0698 -4.4156 -2.0498
LeftShoulder1  -0.399564 4.51685 -33.299
LeftArm  -1.59482 12.1696 -38.5834
LeftForeArm  36.7467 -7.90727 -9.35858
LeftHand  -0.0382063 7.6946 0.202511
RightShoulder  -0.728471 -5.66405 27.0659
RightArm  23.5616 16.0226 53.3829
RightForeArm  8.08363 16.8887 6.02526
RightHand  -0.321846 6.37849 -3.50491
LeftUpLeg  -18.4852 -2.23475 3.02771
LeftLeg  56.5618 -1.84155 -2.5028
LeftFoot  -0.209697 0.354269 -3.6303
LeftToes  -5.6298e-010 8.41567e-011 -1.83319e-011
574
root  -35.2971 39.4576 0.074024 6.27081 89.1554 10.2326
RightUpLeg  -2.93605 -4.75477 1.37478
RightLeg  22.0192 4.75699 0.863313
RightFoot  -13.0344 -0.163072 -5.06378
RightToes  3.49245e-010 0 -3.6325e-017
Spine  5.45836 0.857644 12.3692
Spine1  6.9092 3.52063 -6.0493
HEad  -15.3981 -4.10993 -1.86931
LeftShoulder1  -0.391139 4.49939 -33.1427
LeftArm  -1.41032 14.5871 -36.8877
LeftForeArm  37.0702 -7.86884 -9.32566
LeftHand  -0.0568454 7.96502 -0.577284
RightShoulder  -0.653888 -5.46057 26.7285
RightArm  26.1918 19.0107 54.0221
RightForeArm  4.75925 18.7866 5.55208
RightHand  -0.43611 6.83255 -4.49033
LeftUpLeg  -19.4451 -1.21999 2.52164
LeftLeg  48.5977 -1.76359 -1.74589
LeftFoot  -1.39493 0.313511 -3.52434
LeftToes  -5.6298e-010 8.41567e-011 -1.83319e-011
575
root  -34.0483 39.4874 0.144202 17.3218 88.2159 21.3951
RightUpLeg  -0.0238204 -5.29092 0.775636
RightLeg  20.5843 6.04924 1.0216
RightFoot  -14.2761 -0.234452 -5.39988
RightToes  3.49245e-010 0 -3.6325e-017
Spine  5.65668 1.27362 12.2364
Spine1  6.734 3.97117 -7.0704
HEad  -15.7879 -3.88222 -2.11001
LeftShoulder1  -0.359292 4.42469 -32.8802
LeftArm  -1.49717 16.6132 -35.7757
LeftForeArm  37.7668 -7.50278 -9.3344
LeftHand  -0.0535215 7.83197 -0.51
RightShoulder  -0.687826 -5.57241 26.567
RightArm  27.7779 21.5856 54.3138
RightForeArm  3.59081 20.6404 5.07668
RightHand  -0.448777 7.54703 -4.38325
LeftUpLeg  -20.0308 -0.069681 2.23406
LeftLeg  38.5809 -1.2839 -0.733801
LeftFoot  -1.8824 0.370576 -4.33252
LeftToes  -5.6298e-010 8.41567e-011 -1.83319e-011
576
root  -32.7969 39.4865 0.208174 15.3506 87.6017 19.2086
RightUpLeg  2.62327 -5.76525 0.266138
RightLeg  19.1084 7.18319 1.24645
RightFoot  -15.3456 -0.290007 -5.32699
RightToes  3.49245e-010 0 -3.6325e-017
Spine  5.05073 1.55867 11.5983
Spine1  7.16797 4.05144 -7.29594
HEad  -16.3236 -3.16767 -2.14883
LeftShoulder1  -0.353771 4.40987 -32.906
LeftArm  -0.930382 18.6462 -34.9358
LeftForeArm  37.4011 -7.70902 -9.40317
LeftHand  -0.036963 8.22884 0.290064
RightShoulder  -0.597529 -5.32937 25.9988
RightArm  27.639 23.2194 54.634
RightForeArm  4.14913 22.6752 4.74414
RightHand  -0.390574 6.6868 -4.08856
LeftUpLeg  -19.8285 1.05882 2.05337
LeftLeg  26.6333 -1.11415 -0.27645
LeftFoot  -0.933088 0.409289 -4.43312
LeftToes  -5.6298e-010 8.41567e-011 -1.83319e-011
577
root  -31.5227 39.4686 0.252389 16.2917 87.2639 20.2613
RightUpLeg  5.92563 -6.23234 -0.418072
RightLeg  17.0589 8.08367 1.36508
RightFoot  -16.3316 -0.334362 -5.13792
RightToes  3.49245e-010 0 -3.6325e-017
Spine  4.66527 1.67618 10.3897
Spine1  7.77755 3.94604 -7.10943
HEad  -16.6011 -2.65136 -2.47868
LeftShoulder1  -0.373732 4.45626 -33.1061
LeftArm  -1.14205 20.3314 -34.4248
LeftForeArm  37.7997 -7.53702 -9.28224
LeftHand  -0.0609458 7.71866 -0.851233
RightShoulder  -0.575231 -5.27345 25.7519
RightArm  27.2895 24.5083 54.5886
RightForeArm  5.57734 23.8757 4.80456
RightHand  -0.312738 6.7013 -3.34947
LeftUpLeg  -18.5398 1.69468 1.68165
LeftLeg  13.9904 -1.32137 0.0149265
LeftFoot  -1.2083 0.389949 -4.31774
LeftToes  -5.6298e-010 8.41567e-011 -1.83319e-011
578
root  -30.2434 39.3922 0.293494 15.5117 86.7414 19.114
RightUpLeg  8.52534 -5.85987 -0.783985
RightLeg  15.2574 8.34924 1.14989
RightFoot  -17.3089 -0.363035 -4.71887
RightToes  3.49245e-010 0 -3.6325e-017
Spine  3.95198 1.77793 9.34824
Spine1  8.25843 4.00668 -7.54907
HEad  -16.3371 -1.97171 -2.33015
LeftShoulder1  -0.41248 4.56381 -32.7698
LeftArm  -2.0098 22.2187 -34.6298
LeftForeArm  37.8145 -7.73613 -8.8606
LeftHand  -0.0685589 7.81674 -1.14531
RightShoulder  -0.615998 -5.38179 26.0815
RightArm  27.1779 25.0905 54.4264
RightForeArm  5.64802 24.5555 4.96303
RightHand  -0.322482 7.48005 -3.26401
LeftUpLeg  -17.76 2.26871 1.2886
LeftLeg  3.13173 -1.17315 0.331531
LeftFoot  -1.91046 0.391834 -4.61237
LeftToes  -5.6298e-010 8.41567e-011 -1.83319e-011
579
root  -28.8861 39.1913 0.262807 15.5546 86.311 19.1631
RightUpLeg  11.1773 -5.61958 -1.41041
RightLeg  14.5902 8.78967 1.10206
RightFoot  -18.8343 -0.399501 -4.1543
RightToes  3.49245e-010 0 -3.6325e-017
Spine  3.42803 1.76155 8.40973
Spine1  8.85682 3.99421 -7.64193
HEad  -16.4694 -1.5047 -1.82346
LeftShoulder1  -0.40804 4.55541 -32.6645
LeftArm  -2.31364 23.4679 -34.849
LeftForeArm  36.6608 -8.02075 -8.6517
LeftHand  -0.0544758 7.97808 -0.446408
RightShoulder  -0.644356 -5.45479 26.3223
RightArm  27.3091 24.9057 54.1758
RightForeArm  5.89009 25.0471 5.05921
RightHand  -0.307658 6.9887 -3.2368
LeftUpLeg  -17.4033 2.61673 0.891173
LeftLeg  -2.53862 1.1026 -0.0888769
LeftFoot  -2.41429 0.411557 -5.07268
LeftToes  -5.6298e-010 8.41567e-011 -1.83319e-011
580
root  -27.4551 38.8587 0.153864 17.0137 86.2911 20.6071
RightUpLeg  13.3662 -5.17014 -2.03096
RightLeg  15.1963 8.77067 1.2245
RightFoot  -20.8766 -0.408004 -3.21853
RightToes  3.49245e-010 0 -3.6325e-017
Spine  3.28032 1.70799 7.72711
Spine1  8.7304 3.87764 -7.52104
HEad  -16.6197 -1.66156 -1.25885
LeftShoulder1  -0.434853 4.61866 -32.8563
LeftArm  -2.66761 23.6954 -35.1096
LeftForeArm  36.4456 -8.05379 -8.52776
LeftHand  -0.0710847 8.70874 -0.780626
RightShoulder  -0.682455 -5.54758 26.7159
RightArm  26.4758 23.483 53.7059
RightForeArm  6.09241 24.9229 5.02043
RightHand  -0.329394 6.80622 -3.49102
LeftUpLeg  -18.4077 2.21677 0.219575
LeftLeg  -0.728197 4.35386 -0.208793
LeftFoot  -2.1819 0.402106 -4.81276
LeftToes  -5.6298e-010 8.41567e-011 -1.83319e-011
581
root  -25.9288 38.5259 0.0382201 21.7505 86.0916 25.6437
RightUpLeg  15.9188 -3.89673 -2.72512
RightLeg  15.9692 8.06331 1.28409
RightFoot  -22.5326 -0.287563 -1.36578
RightToes  3.49245e-010 0 -3.6325e-017
Spine  2.85796 1.80406 6.53333
Spine1  9.30723 3.87639 -7.07335
HEad  -16.8554 -1.85522 -1.35411
LeftShoulder1  -0.519779 4.81882 -33.3744
LeftArm  -2.64933 22.6981 -35.1761
LeftForeArm  36.8491 -7.76872 -8.64697
LeftHand  -0.0694911 8.69892 -0.729962
RightShoulder  -0.672823 -5.51349 26.8039
RightArm  25.1751 20.9901 53.3296
RightForeArm  6.67146 24.1595 4.80223
RightHand  -0.257031 7.3942 -2.69107
LeftUpLeg  -19.512 1.64382 -1.00636
LeftLeg  5.26493 6.04573 0.442625
LeftFoot  0.412807 0.101077 -1.30604
LeftToes  -5.6298e-010 8.41567e-011 -1.83319e-011
582
root  -24.3616 38.2894 -0.110198 27.0623 85.0758 31.151
RightUpLeg  17.9031 -1.06531 -3.54346
RightLeg  17.3939 6.59838 1.55064
RightFoot  -23.143 -0.0183339 1.3076
RightToes  3.49245e-010 0 -3.6325e-017
Spine  2.51216 2.23883 5.44427
Spine1  9.51604 4.43179 -7.48197
HEad  -16.8481 -1.97429 -0.977456
LeftShoulder1  -0.620803 5.05481 -33.8574
LeftArm  -2.24505 21.2241 -35.0658
LeftForeArm  37.422 -7.79303 -8.82823
LeftHand  -0.0731125 8.43527 -0.96386
RightShoulder  -0.680407 -5.49538 27.4538
RightArm  24.5921 17.7029 52.4268
RightForeArm  6.00963 22.5518 4.69692
RightHand  -0.282757 6.48264 -3.07581
LeftUpLeg  -20.4186 1.63642 -2.49347
LeftLeg  10.5261 5.4199 1.04217
LeftFoot  6.04296 -0.409375 2.56454
LeftToes  -5.6298e-010 8.41567e-011 -1.83319e-011
